<?xml version="1.0" standalone="no"?>
<!DOCTYPE svg PUBLIC "-//W3C//DTD SVG 20010904//EN"
 "http://www.w3.org/TR/2001/REC-SVG-20010904/DTD/svg10.dtd">
<svg version="1.0" xmlns="http://www.w3.org/2000/svg"
 width="310.000000pt" height="310.000000pt" viewBox="0 0 310.000000 310.000000"
 preserveAspectRatio="xMidYMid meet">
<metadata>
Created by potrace 1.14, written by Peter Selinger 2001-2017
</metadata>
<g transform="translate(0.000000,310.000000) scale(0.100000,-0.100000)"
fill="#000000" stroke="none">
<path d="M868 2522 c-23 -41 -58 -166 -53 -191 3 -19 2 -21 -10 -11 -18 15
-19 6 -4 -22 9 -16 8 -23 -2 -29 -8 -5 -9 -9 -4 -9 6 0 11 -19 12 -42 2 -22
16 -77 32 -122 16 -45 35 -99 43 -121 7 -22 17 -43 23 -47 7 -5 7 -8 0 -8 -11
0 -34 24 -60 64 -10 14 -24 26 -31 26 -8 0 -14 5 -14 10 0 6 -6 10 -14 10 -8
0 -16 7 -20 15 -3 8 -11 14 -17 13 -6 -2 -13 5 -14 15 -2 10 -13 26 -24 36
-12 10 -21 23 -21 29 0 6 -8 17 -18 24 -25 18 -79 116 -92 164 -8 34 -9 32 -4
-21 9 -88 9 -89 18 -103 4 -6 4 -18 0 -24 -4 -7 -4 -10 0 -6 8 7 92 -151 88
-164 -1 -5 2 -8 7 -8 5 0 18 -16 30 -36 23 -39 26 -48 12 -39 -5 3 -13 0 -17
-7 -4 -7 -4 -10 1 -6 4 4 14 0 22 -10 12 -16 13 -15 6 3 -6 20 -6 20 15 2 20
-18 20 -47 0 -47 -5 0 -2 -7 6 -16 14 -14 14 -34 0 -34 -3 0 -2 5 2 12 5 8 0
9 -14 6 -13 -4 -22 -1 -22 5 0 6 -3 7 -7 4 -3 -4 -15 1 -25 10 -15 14 -19 14
-16 3 2 -9 -3 -14 -12 -12 -8 2 -22 5 -30 7 -8 2 -28 8 -43 14 -42 16 -25 -2
51 -53 37 -25 90 -66 117 -91 l50 -46 -48 20 c-26 11 -54 18 -62 15 -8 -3 -31
4 -51 17 -21 13 -56 24 -81 25 -45 2 -113 32 -151 67 -26 24 -28 17 -5 -21 19
-29 93 -101 106 -102 4 0 18 -9 30 -21 29 -28 91 -59 117 -59 11 0 23 -7 26
-15 4 -8 11 -12 17 -8 5 3 7 1 3 -5 -3 -6 -16 -9 -29 -7 -12 2 -40 6 -62 10
-87 13 -110 17 -120 22 -5 2 -1 -3 10 -12 26 -22 133 -73 165 -79 14 -2 26 -5
28 -7 1 -1 6 -2 11 -3 5 0 13 -4 17 -8 4 -5 19 -8 33 -8 19 0 22 -3 13 -12
-16 -16 -15 -25 4 -32 14 -5 15 -4 4 9 -11 13 -10 14 4 9 9 -3 16 -14 16 -24
0 -13 -24 -31 -82 -60 l-83 -41 53 7 c29 4 75 7 102 8 30 0 46 4 43 11 -4 5
-2 7 2 2 5 -4 19 0 33 9 29 19 45 8 17 -11 -11 -8 -25 -18 -30 -23 -17 -14
-56 -22 -48 -9 4 6 0 8 -10 4 -9 -3 -18 -1 -20 6 -2 7 -4 -2 -3 -20 1 -20 5
-28 10 -22 6 5 17 9 25 9 11 -1 6 -9 -14 -26 l-30 -26 31 4 c27 4 30 2 26 -16
-5 -20 -4 -20 20 2 13 12 27 20 30 16 4 -3 12 5 19 18 11 21 11 22 -4 9 -10
-7 -17 -10 -17 -5 0 5 15 21 34 36 32 26 35 26 31 7 -2 -12 -10 -27 -16 -35
-9 -11 -9 -14 2 -11 8 2 11 2 6 0 -4 -3 -4 -10 0 -16 4 -7 -1 -6 -10 2 -9 7
-18 11 -18 7 -1 -3 -2 -9 -3 -13 -1 -5 -5 -14 -10 -22 -7 -11 -5 -13 7 -8 10
4 20 0 26 -11 6 -9 11 -12 11 -7 0 6 -5 16 -12 23 -7 7 -8 12 -2 12 6 0 15 -5
21 -11 9 -9 19 -6 42 10 27 20 30 20 24 4 -6 -16 -5 -17 13 -3 18 14 18 14 5
-3 -8 -9 -16 -15 -19 -12 -3 2 -11 -3 -19 -13 -14 -16 -14 -16 -9 1 3 11 2 16
-4 12 -13 -8 -13 -35 -1 -35 5 0 4 -14 -2 -31 -10 -26 -9 -32 6 -40 16 -9 16
-12 1 -40 -8 -17 -13 -33 -10 -37 3 -3 6 0 6 8 0 10 3 10 18 -1 14 -11 15 -11
5 1 -19 20 -16 33 5 28 11 -3 19 0 19 8 0 7 -4 11 -9 8 -5 -4 -4 4 4 15 11 18
11 23 -2 32 -12 8 -10 9 7 4 29 -8 51 4 32 17 -11 8 -11 9 1 5 8 -2 14 -10 12
-16 -16 -72 -4 -132 18 -90 15 28 67 83 81 85 5 1 16 2 25 3 8 0 13 5 9 10 -3
5 -1 12 5 16 5 3 10 -1 10 -10 0 -9 -8 -19 -18 -22 -14 -3 -18 -11 -14 -29 2
-13 8 -21 13 -18 5 3 7 8 5 12 -2 4 2 12 9 19 10 9 12 2 10 -38 -2 -27 1 -49
6 -49 5 0 9 5 9 10 0 6 5 10 12 10 6 0 8 -3 5 -6 -3 -4 -2 -15 4 -26 7 -14 7
-23 -2 -34 -8 -9 -8 -14 -1 -14 6 0 21 19 32 42 l21 43 -5 -55 c-4 -37 -2 -48
4 -35 5 12 9 15 9 6 1 -12 3 -12 14 1 10 15 14 15 25 2 11 -12 10 -14 -5 -14
-15 0 -15 -2 3 -15 13 -10 14 -13 3 -10 -10 4 -16 0 -16 -9 0 -8 4 -13 8 -10
4 2 6 -18 3 -46 -2 -27 -1 -50 4 -50 4 0 16 22 27 50 11 28 23 50 28 50 4 0 6
4 3 8 -2 4 4 19 14 32 16 21 21 23 32 11 10 -10 10 -12 1 -7 -18 10 -16 -9 2
-27 8 -8 11 -17 8 -21 -4 -3 -1 -6 5 -6 7 0 12 -5 12 -11 0 -7 8 -17 17 -24
21 -15 26 -78 6 -71 -8 3 -11 1 -8 -4 3 -6 12 -10 19 -10 9 0 12 -10 10 -30
-2 -16 1 -30 6 -30 9 0 15 23 11 44 -1 5 4 6 12 3 7 -3 14 1 14 9 0 7 -5 10
-11 7 -6 -4 -2 4 9 17 12 14 14 20 5 15 -12 -6 -12 -5 -3 5 6 7 9 19 6 26 -6
16 31 67 41 56 4 -3 4 1 0 11 -3 9 -1 17 4 17 6 0 9 9 7 20 -2 11 1 23 7 26 6
4 8 3 5 -3 -4 -6 3 -21 14 -34 12 -13 34 -52 50 -86 15 -35 29 -63 31 -63 3 0
1 61 -2 70 -1 3 -2 9 -1 13 1 5 -3 24 -8 43 -8 29 -7 33 3 25 11 -9 13 -5 10
19 -2 19 0 29 6 25 6 -3 10 -14 10 -23 0 -13 2 -14 9 -3 7 11 9 11 14 0 4 -8
4 9 1 36 -4 45 -3 48 9 30 8 -11 17 -30 21 -42 10 -32 24 -29 18 3 -3 16 3 36
17 54 11 16 21 37 22 47 0 15 2 14 11 -4 6 -13 14 -23 19 -23 9 0 7 20 -4 37
-6 9 -3 11 9 6 14 -5 15 -3 5 15 -11 21 -10 21 14 10 14 -6 25 -18 25 -25 0
-8 4 -12 8 -9 5 3 15 -4 23 -16 8 -11 21 -30 30 -41 16 -20 16 -20 16 18 0 27
4 39 12 37 7 -1 10 2 6 8 -3 6 -11 8 -16 5 -5 -4 -9 3 -9 15 0 19 1 20 16 6
19 -19 31 -21 15 -3 -8 10 -7 14 4 14 10 0 15 -11 15 -34 0 -35 8 -41 28 -21
15 15 16 31 0 22 -7 -4 -8 -3 -4 5 6 9 11 9 23 -1 13 -10 15 -9 11 7 -2 11
-11 19 -18 17 -10 -2 -8 4 5 19 11 12 15 19 9 16 -7 -4 -15 0 -18 9 -5 12 -2
15 13 11 16 -4 18 0 16 21 -1 15 -8 28 -14 30 -6 2 -11 8 -11 14 0 6 7 4 17
-3 15 -12 16 -12 10 4 -5 12 -3 16 5 11 7 -5 9 -2 5 9 -3 9 1 18 10 21 11 4
32 -11 64 -46 49 -53 59 -57 38 -15 -9 18 -9 20 2 10 7 -7 24 -13 39 -12 23 0
23 1 5 9 -24 10 -57 48 -47 53 4 2 17 2 30 1 23 -1 30 10 12 21 -5 3 -10 1
-10 -4 0 -6 -10 -9 -22 -7 -13 1 -22 7 -20 12 2 10 30 10 122 0 l65 -7 -63 32
c-34 18 -62 39 -62 47 0 8 -8 21 -17 29 -10 8 -13 12 -7 9 7 -3 14 1 18 9 3 8
0 15 -6 15 -24 0 3 12 59 26 63 17 203 81 203 94 0 5 -15 5 -32 0 -18 -5 -55
-11 -83 -14 -27 -3 -62 -8 -77 -11 -22 -4 -26 -2 -22 10 3 8 10 12 15 9 5 -3
9 -1 9 3 0 5 21 15 47 23 27 7 53 18 59 24 6 6 29 24 50 41 58 44 134 123 134
140 0 9 -8 6 -25 -11 -38 -38 -129 -77 -163 -69 -20 4 -36 -1 -62 -20 -35 -26
-56 -31 -62 -16 -1 5 -21 1 -42 -10 -22 -10 -41 -18 -42 -16 -1 1 20 23 47 48
27 25 51 44 54 41 3 -3 5 0 5 6 0 7 4 12 10 12 7 0 85 54 108 75 2 2 -18 -3
-45 -11 -26 -8 -59 -12 -71 -9 -15 4 -21 2 -17 -5 3 -5 -1 -11 -9 -11 -17 -2
-33 -5 -41 -9 -3 -1 -9 -4 -15 -5 -5 -1 -12 -4 -15 -5 -3 -1 -8 -3 -12 -4 -5
-1 -14 -5 -20 -9 -7 -5 -13 -5 -13 0 0 4 -5 1 -10 -7 -8 -13 -10 -12 -10 3 0
10 -5 15 -10 12 -6 -4 -7 -12 -4 -18 4 -7 3 -8 -1 -4 -12 10 -15 38 -4 31 5
-3 14 6 21 20 6 14 15 26 20 26 5 0 31 22 58 48 27 27 52 47 55 45 3 -1 3 0 0
4 -3 3 3 18 12 32 31 47 91 178 108 232 8 30 18 79 20 109 l5 55 -15 -55 c-17
-60 -81 -180 -95 -180 -6 0 -10 -7 -10 -15 0 -9 -7 -18 -15 -21 -8 -4 -15 -12
-15 -20 0 -8 -6 -13 -12 -11 -7 1 -12 -6 -12 -15 1 -10 -3 -16 -10 -15 -6 1
-10 -4 -8 -11 1 -8 -2 -11 -8 -7 -5 3 -33 -17 -61 -44 -29 -28 -55 -51 -60
-51 -9 0 -3 41 8 49 5 3 10 13 12 21 2 8 17 52 33 98 16 46 30 112 32 147 2
35 7 69 11 77 3 7 -1 4 -9 -7 -16 -18 -16 -18 -13 11 2 16 7 35 11 42 4 8 3
11 -4 10 -7 -2 -22 24 -34 58 -19 56 -67 140 -51 89 4 -11 8 -24 9 -30 2 -5 6
-17 9 -25 8 -21 13 -110 6 -110 -3 0 -6 -20 -6 -44 -1 -49 -51 -180 -108 -281
-20 -36 -38 -65 -40 -65 -5 0 8 43 22 70 15 29 16 40 5 40 -4 0 -8 -10 -9 -21
-1 -12 -9 -29 -18 -39 -14 -16 -22 -34 -24 -63 -1 -5 -5 -6 -10 -2 -6 3 -8 -4
-6 -15 2 -11 0 -20 -5 -20 -5 0 -12 -9 -15 -20 -9 -27 -35 -26 -35 2 0 21 0
21 -14 2 -9 -12 -11 -21 -4 -25 5 -4 3 -9 -6 -12 -9 -4 -13 -13 -10 -22 4 -10
2 -15 -7 -13 -10 2 -13 -5 -11 -24 2 -14 -1 -29 -6 -32 -5 -3 -9 8 -10 25 -1
35 -12 54 -12 21 0 -12 -5 -22 -11 -22 -5 0 -7 -4 -4 -10 3 -5 1 -10 -6 -10
-8 0 -7 -5 2 -17 13 -15 12 -15 -7 -5 -12 6 -38 35 -59 63 -20 28 -38 49 -41
46 -2 -2 8 -37 23 -78 23 -64 26 -87 24 -168 -1 -52 -5 -100 -9 -105 -3 -6 -7
-17 -8 -24 -2 -12 -23 -33 -91 -93 -78 -69 -188 -56 -285 34 -61 57 -63 61
-73 205 -5 63 -2 83 25 159 16 48 26 83 22 77 -4 -5 -26 -31 -47 -59 -56 -70
-97 -113 -89 -92 3 9 10 17 16 17 5 0 2 7 -6 16 -18 17 -12 39 7 27 7 -3 4 2
-5 13 -10 11 -18 34 -20 50 -2 29 -5 30 -41 30 -42 -1 -77 16 -77 38 0 7 -11
23 -25 36 -14 13 -25 29 -25 36 0 6 -6 17 -14 24 -8 6 -17 19 -19 28 -2 9 -3
6 -1 -8 1 -14 6 -34 9 -45 l7 -20 -17 20 c-9 11 -27 40 -39 65 -13 25 -32 61
-43 80 -59 103 -86 272 -56 358 17 52 13 62 -9 24z m-23 -685 c4 -9 10 -15 15
-12 4 3 11 -2 14 -11 3 -8 2 -12 -3 -9 -6 3 -14 -3 -20 -12 -6 -11 -11 -13
-11 -5 0 7 -5 10 -12 6 -7 -4 -8 -3 -4 4 4 8 0 12 -12 12 -25 0 -43 39 -29 62
10 15 12 15 34 0 12 -10 25 -25 28 -35z m349 37 c9 -3 16 -15 16 -26 0 -28
-33 -19 -35 10 -2 25 -2 24 19 16z m1081 -444 c3 -6 -1 -7 -9 -4 -18 7 -21 14
-7 14 6 0 13 -4 16 -10z m-74 -57 c13 -16 12 -17 -3 -4 -10 7 -18 15 -18 17 0
8 8 3 21 -13z m-127 -115 c-5 -7 -2 -9 7 -6 8 3 23 0 34 -8 18 -13 18 -14 -7
-14 -26 0 -53 22 -41 33 10 11 15 8 7 -5z m-1020 -56 c3 -5 -1 -9 -9 -9 -8 0
-12 4 -9 9 3 4 7 8 9 8 2 0 6 -4 9 -8z m493 -215 c0 -8 -6 -14 -14 -14 -9 0
-10 4 -2 14 6 7 12 13 14 13 1 0 2 -6 2 -13z m0 -72 c0 -8 -4 -12 -9 -9 -5 3
-6 10 -3 15 9 13 12 11 12 -6z"/>
<path d="M785 1861 c-3 -5 0 -13 6 -17 7 -4 9 -3 5 4 -3 5 0 13 6 15 9 4 10 6
1 6 -6 1 -14 -3 -18 -8z"/>
<path d="M826 1825 c9 -14 19 -24 21 -21 6 6 -20 46 -30 46 -4 0 0 -11 9 -25z"/>
<path d="M2309 1914 c-16 -20 7 -25 25 -5 14 15 14 18 1 18 -8 0 -20 -6 -26
-13z"/>
<path d="M1120 1910 c0 -5 5 -10 11 -10 5 0 7 5 4 10 -3 6 -8 10 -11 10 -2 0
-4 -4 -4 -10z"/>
<path d="M2268 1873 c-8 -10 -13 -24 -12 -30 1 -7 2 -18 3 -23 1 -7 6 -6 15 2
11 11 11 15 -3 25 -14 10 -13 11 7 6 13 -3 22 -1 22 6 0 6 -5 11 -11 11 -5 0
-7 5 -4 10 10 16 -1 11 -17 -7z"/>
<path d="M2216 1821 c-3 -5 1 -11 9 -15 15 -6 29 7 18 18 -9 9 -21 8 -27 -3z"/>
<path d="M2326 1459 c2 -4 -1 -9 -8 -11 -7 -3 -8 -7 -2 -11 5 -3 15 2 21 12 9
14 8 18 -3 18 -7 0 -11 -4 -8 -8z"/>
<path d="M2350 1438 c0 -4 4 -8 9 -8 6 0 12 4 15 8 3 5 -1 9 -9 9 -8 0 -15 -4
-15 -9z"/>
<path d="M2173 1283 c1 -17 4 -19 14 -11 7 6 13 16 13 22 0 6 -4 5 -9 -3 -7
-11 -9 -11 -14 0 -3 8 -4 4 -4 -8z"/>
<path d="M2144 1269 c-3 -6 -2 -15 3 -20 5 -5 9 -1 10 11 2 22 -2 25 -13 9z"/>
<path d="M2102 1103 c-8 -15 -7 -19 8 -19 9 0 17 6 16 13 -4 22 -14 25 -24 6z"/>
<path d="M1856 1071 c-4 -7 -5 -15 -2 -18 9 -9 19 4 14 18 -4 11 -6 11 -12 0z"/>
<path d="M2115 1060 c-3 -5 -1 -10 4 -10 6 0 11 5 11 10 0 6 -2 10 -4 10 -3 0
-8 -4 -11 -10z"/>
</g>
</svg>
